# xmcd CD database file
#
# Track frame offsets:
#	150
#	15782
#	31427
#	47102
#
# Disc length: 836 seconds
#
# Revision: 2
# Processed by: cddbd v1.5PL3 Copyright (c) Steve Scherf et al.
# Submitted via: CDex 1.51
#
DISCID=23034204
DTITLE=G-onライダース(島 涼香、南 央美、倉田雅世) - トキメイテ　G-on　G！
DYEAR=2002
DGENRE=Anime
TTITLE0=トキメイテ,G-on G!
TTITLE1=トキメイテ、G-on！ (セーラ・ソロver.)(南 央美)
TTITLE2=トキメイテ、G-onG！ (Original Karaoke)
TTITLE3=トキメイテ、G-on！ (セーラ・ソロver. Original Karaoke)
EXTD=YEAR: 2002
EXTT0=
EXTT1=
EXTT2=
EXTT3=
PLAYORDER=
